<svg width="160" height="31" viewBox="0 0 160 31" fill="none" xmlns="http://www.w3.org/2000/svg">
<path d="M16.5739 16.875L17.4183 11.4457H12.1392V7.92246C12.1392 6.43711 12.8767 4.98926 15.241 4.98926H17.6409V0.366797C17.6409 0.366797 15.463 0 13.3808 0C9.03332 0 6.19163 2.60039 6.19163 7.30781V11.4457H1.3591V16.875H6.19163V30H12.1392V16.875H16.5739Z" fill="black" fill-opacity="0.5"/>
<path d="M61.9162 8.88957C61.9353 9.15605 61.9353 9.42259 61.9353 9.68908C61.9353 17.8172 55.7488 27.1827 44.4416 27.1827C40.9581 27.1827 37.7221 26.1738 35 24.4226C35.4949 24.4797 35.9708 24.4987 36.4848 24.4987C39.3591 24.4987 42.0051 23.5279 44.118 21.8718C41.415 21.8147 39.1497 20.0444 38.3693 17.6078C38.75 17.6649 39.1307 17.703 39.5305 17.703C40.0825 17.703 40.6346 17.6268 41.1485 17.4936C38.3312 16.9225 36.2182 14.4479 36.2182 11.4594V11.3833C37.0367 11.8401 37.9886 12.1256 38.9974 12.1637C37.3413 11.0596 36.2563 9.17509 36.2563 7.0431C36.2563 5.90099 36.5608 4.85404 37.0938 3.94033C40.1205 7.67128 44.67 10.1078 49.7715 10.3743C49.6763 9.91748 49.6192 9.44164 49.6192 8.96574C49.6192 5.57738 52.3603 2.81726 55.7677 2.81726C57.538 2.81726 59.1369 3.55964 60.2601 4.75888C61.6496 4.4924 62.9821 3.97841 64.1623 3.27412C63.7054 4.70181 62.7347 5.90105 61.4593 6.66242C62.6966 6.52923 63.8959 6.18652 64.9999 5.71068C64.1625 6.9289 63.1155 8.01388 61.9162 8.88957Z" fill="black" fill-opacity="0.5"/>
<g clip-path="url(#clip0_35_103)">
<path d="M95.506 8.53708C91.673 8.53708 88.5813 11.6431 88.5813 15.4939C88.5813 19.3447 91.673 22.4508 95.506 22.4508C99.3391 22.4508 102.431 19.3447 102.431 15.4939C102.431 11.6431 99.3391 8.53708 95.506 8.53708ZM95.506 20.0168C93.029 20.0168 91.004 17.9885 91.004 15.4939C91.004 12.9994 93.023 10.9711 95.506 10.9711C97.9891 10.9711 100.008 12.9994 100.008 15.4939C100.008 17.9885 97.983 20.0168 95.506 20.0168ZM104.329 8.25251C104.329 9.15466 103.606 9.87517 102.714 9.87517C101.816 9.87517 101.099 9.14861 101.099 8.25251C101.099 7.35642 101.822 6.62986 102.714 6.62986C103.606 6.62986 104.329 7.35642 104.329 8.25251ZM108.916 9.89939C108.813 7.72576 108.319 5.80037 106.734 4.21404C105.155 2.62771 103.238 2.13123 101.075 2.02224C98.8449 1.89509 92.1612 1.89509 89.9313 2.02224C87.7737 2.12517 85.8571 2.62166 84.2721 4.20798C82.6871 5.79431 82.1989 7.7197 82.0904 9.89333C81.9638 12.1336 81.9638 18.8482 82.0904 21.0885C82.1929 23.2621 82.6871 25.1875 84.2721 26.7738C85.8571 28.3601 87.7676 28.8566 89.9313 28.9656C92.1612 29.0927 98.8449 29.0927 101.075 28.9656C103.238 28.8627 105.155 28.3662 106.734 26.7738C108.313 25.1875 108.807 23.2621 108.916 21.0885C109.042 18.8482 109.042 12.1396 108.916 9.89939ZM106.035 23.4922C105.565 24.6789 104.655 25.5931 103.467 26.0715C101.69 26.7799 97.4708 26.6164 95.506 26.6164C93.5413 26.6164 89.3165 26.7738 87.5446 26.0715C86.3634 25.5992 85.4534 24.6849 84.9772 23.4922C84.2721 21.706 84.4348 17.4677 84.4348 15.4939C84.4348 13.5201 84.2781 9.27576 84.9772 7.49568C85.4473 6.30896 86.3574 5.3947 87.5446 4.91638C89.3225 4.20798 93.5413 4.37146 95.506 4.37146C97.4708 4.37146 101.696 4.21404 103.467 4.91638C104.649 5.38865 105.559 6.30291 106.035 7.49568C106.74 9.28181 106.577 13.5201 106.577 15.4939C106.577 17.4677 106.74 21.7121 106.035 23.4922Z" fill="black" fill-opacity="0.5"/>
</g>
<path d="M158.353 7.51284C157.961 6.0809 156.804 4.95316 155.336 4.57044C152.674 3.875 142 3.875 142 3.875C142 3.875 131.326 3.875 128.664 4.57044C127.196 4.95322 126.039 6.0809 125.647 7.51284C124.933 10.1083 124.933 15.5235 124.933 15.5235C124.933 15.5235 124.933 20.9387 125.647 23.5341C126.039 24.9661 127.196 26.0468 128.664 26.4296C131.326 27.125 142 27.125 142 27.125C142 27.125 152.674 27.125 155.336 26.4296C156.804 26.0468 157.961 24.9661 158.353 23.5341C159.067 20.9387 159.067 15.5235 159.067 15.5235C159.067 15.5235 159.067 10.1083 158.353 7.51284ZM138.509 20.4401V10.6069L147.43 15.5236L138.509 20.4401Z" fill="black" fill-opacity="0.5"/>
<defs>
<clipPath id="clip0_35_103">
<rect width="27" height="31" fill="white" transform="translate(82)"/>
</clipPath>
</defs>
</svg>
